<svg xmlns="http://www.w3.org/2000/svg" xmlns:xlink="http://www.w3.org/1999/xlink" width="1080" zoomAndPan="magnify" viewBox="0 0 810 809.999993" height="1080" preserveAspectRatio="xMidYMid meet" version="1.0"><defs><clipPath id="id1"><path d="M 198.449219 198.449219 L 611.550781 198.449219 L 611.550781 611.550781 L 198.449219 611.550781 Z M 198.449219 198.449219 " clip-rule="nonzero"/></clipPath><clipPath id="id2"><path d="M 611.550781 405.003906 C 611.550781 519.070312 519.074219 611.550781 405 611.550781 C 290.925781 611.550781 198.449219 519.070312 198.449219 405.003906 C 198.449219 290.925781 290.925781 198.449219 405 198.449219 C 519.074219 198.449219 611.550781 290.925781 611.550781 405.003906 Z M 611.550781 405.003906 " clip-rule="nonzero"/></clipPath><clipPath id="id3"><path d="M 272.179688 285 L 537.679688 285 L 537.679688 524.964844 L 272.179688 524.964844 Z M 272.179688 285 " clip-rule="nonzero"/></clipPath></defs><g clip-path="url(#id1)"><g clip-path="url(#id2)"><path fill="#004aad" d="M 198.449219 198.449219 L 611.550781 198.449219 L 611.550781 611.550781 L 198.449219 611.550781 Z M 198.449219 198.449219 " fill-opacity="1" fill-rule="nonzero"/></g></g><path fill="#ffffff" d="M 352.695312 386.496094 C 343.953125 380.0625 333.652344 377.101562 333.226562 376.960938 C 333.011719 376.886719 332.792969 376.839844 332.570312 376.820312 C 332.347656 376.800781 332.125 376.804688 331.902344 376.839844 C 331.679688 376.875 331.464844 376.9375 331.257812 377.023438 C 331.050781 377.113281 330.855469 377.222656 330.675781 377.359375 C 330.496094 377.496094 330.335938 377.648438 330.195312 377.824219 C 330.054688 378 329.9375 378.191406 329.84375 378.394531 C 329.746094 378.601562 329.679688 378.8125 329.636719 379.035156 C 329.597656 379.253906 329.582031 379.476562 329.597656 379.703125 L 329.597656 401.910156 C 329.597656 402.21875 329.644531 402.515625 329.742188 402.808594 C 329.835938 403.101562 329.976562 403.367188 330.160156 403.613281 C 330.34375 403.859375 330.5625 404.070312 330.8125 404.246094 C 331.066406 404.425781 331.335938 404.554688 331.632812 404.644531 C 337.957031 406.609375 343.855469 409.457031 349.324219 413.191406 C 351.769531 414.460938 353.851562 412.773438 353.851562 410.886719 L 353.851562 388.789062 C 353.851562 388.335938 353.75 387.910156 353.546875 387.503906 C 353.34375 387.101562 353.058594 386.765625 352.695312 386.496094 Z M 352.695312 386.496094 " fill-opacity="1" fill-rule="nonzero"/><path fill="#ffffff" d="M 331.816406 321.367188 C 332.703125 321.566406 334.941406 322.109375 335.179688 322.109375 C 335.527344 322.109375 335.863281 322.046875 336.1875 321.925781 C 336.511719 321.804688 336.800781 321.628906 337.0625 321.398438 C 337.320312 321.171875 337.535156 320.902344 337.695312 320.597656 C 337.859375 320.292969 337.960938 319.96875 338.007812 319.625 C 338.050781 319.28125 338.03125 318.941406 337.953125 318.605469 C 337.875 318.265625 337.738281 317.957031 337.542969 317.667969 C 337.351562 317.378906 337.113281 317.136719 336.832031 316.9375 C 336.546875 316.734375 336.238281 316.589844 335.90625 316.503906 C 334.96875 316.257812 334.023438 316.023438 333.074219 315.808594 C 332.707031 315.726562 332.339844 315.722656 331.96875 315.785156 C 331.597656 315.851562 331.253906 315.984375 330.9375 316.1875 C 330.617188 316.390625 330.351562 316.644531 330.132812 316.949219 C 329.917969 317.257812 329.769531 317.597656 329.683594 317.960938 C 329.601562 318.328125 329.589844 318.699219 329.65625 319.070312 C 329.71875 319.441406 329.847656 319.785156 330.050781 320.105469 C 330.25 320.421875 330.5 320.691406 330.808594 320.910156 C 331.113281 321.128906 331.449219 321.28125 331.816406 321.367188 Z M 331.816406 321.367188 " fill-opacity="1" fill-rule="nonzero"/><path fill="#ffffff" d="M 353.675781 323.207031 C 353.328125 323.054688 352.96875 322.972656 352.589844 322.960938 C 352.210938 322.953125 351.847656 323.015625 351.492188 323.152344 C 351.140625 323.285156 350.828125 323.484375 350.554688 323.746094 C 350.277344 324.007812 350.066406 324.308594 349.910156 324.65625 C 349.757812 325 349.675781 325.363281 349.667969 325.742188 C 349.660156 326.117188 349.722656 326.484375 349.859375 326.835938 C 349.996094 327.191406 350.191406 327.503906 350.453125 327.777344 C 350.714844 328.050781 351.019531 328.265625 351.363281 328.417969 C 369.699219 336.554688 382.777344 350.6875 382.90625 350.828125 C 383.1875 351.058594 383.496094 351.238281 383.835938 351.367188 C 384.175781 351.496094 384.527344 351.570312 384.890625 351.585938 C 385.253906 351.601562 385.609375 351.5625 385.957031 351.460938 C 386.308594 351.363281 386.632812 351.210938 386.929688 351.003906 C 387.21875 350.753906 387.445312 350.457031 387.609375 350.117188 C 387.777344 349.773438 387.867188 349.410156 387.882812 349.03125 C 387.902344 348.652344 387.84375 348.28125 387.707031 347.925781 C 387.574219 347.570312 387.375 347.253906 387.109375 346.980469 C 386.550781 346.363281 373.136719 331.839844 353.675781 323.207031 Z M 353.675781 323.207031 " fill-opacity="1" fill-rule="nonzero"/><path fill="#ffffff" d="M 331.816406 342.414062 C 360.492188 348.914062 382.722656 371.714844 382.957031 371.929688 C 383.214844 372.207031 383.519531 372.421875 383.867188 372.578125 C 384.210938 372.730469 384.574219 372.8125 384.957031 372.820312 C 385.335938 372.824219 385.699219 372.757812 386.050781 372.617188 C 386.40625 372.472656 386.714844 372.269531 386.984375 372 C 387.246094 371.734375 387.449219 371.429688 387.59375 371.082031 C 387.738281 370.738281 387.816406 370.378906 387.824219 370.003906 C 387.828125 369.628906 387.765625 369.265625 387.636719 368.914062 C 387.503906 368.566406 387.3125 368.25 387.058594 367.972656 C 386.109375 366.988281 363.449219 343.742188 333.074219 336.859375 C 332.707031 336.773438 332.335938 336.765625 331.964844 336.828125 C 331.589844 336.890625 331.246094 337.023438 330.925781 337.226562 C 330.605469 337.425781 330.335938 337.683594 330.117188 337.992188 C 329.898438 338.300781 329.75 338.636719 329.664062 339.007812 C 329.582031 339.375 329.570312 339.746094 329.636719 340.117188 C 329.699219 340.492188 329.832031 340.835938 330.035156 341.15625 C 330.234375 341.476562 330.492188 341.746094 330.800781 341.964844 C 331.109375 342.183594 331.449219 342.332031 331.816406 342.414062 Z M 331.816406 342.414062 " fill-opacity="1" fill-rule="nonzero"/><path fill="#ffffff" d="M 333.074219 357.910156 C 332.707031 357.824219 332.335938 357.816406 331.964844 357.878906 C 331.59375 357.945312 331.246094 358.078125 330.925781 358.277344 C 330.605469 358.480469 330.339844 358.734375 330.121094 359.042969 C 329.902344 359.351562 329.75 359.691406 329.667969 360.058594 C 329.585938 360.425781 329.574219 360.796875 329.636719 361.171875 C 329.703125 361.542969 329.835938 361.886719 330.035156 362.207031 C 330.238281 362.527344 330.492188 362.796875 330.800781 363.015625 C 331.109375 363.234375 331.449219 363.382812 331.816406 363.46875 C 360.492188 369.964844 382.734375 392.75 382.957031 392.980469 C 383.238281 393.210938 383.550781 393.390625 383.894531 393.515625 C 384.238281 393.644531 384.59375 393.710938 384.957031 393.714844 C 385.324219 393.722656 385.679688 393.667969 386.027344 393.554688 C 386.375 393.441406 386.695312 393.273438 386.984375 393.054688 C 387.265625 392.796875 387.484375 392.492188 387.640625 392.144531 C 387.792969 391.800781 387.875 391.4375 387.882812 391.054688 C 387.890625 390.675781 387.824219 390.308594 387.679688 389.957031 C 387.535156 389.601562 387.328125 389.292969 387.058594 389.027344 C 386.109375 388.035156 363.449219 364.789062 333.074219 357.910156 Z M 333.074219 357.910156 " fill-opacity="1" fill-rule="nonzero"/><path fill="#ffffff" d="M 366.417969 393.59375 C 366.085938 393.414062 365.734375 393.308594 365.363281 393.269531 C 364.992188 393.230469 364.625 393.261719 364.265625 393.367188 C 363.90625 393.472656 363.582031 393.644531 363.289062 393.878906 C 362.996094 394.109375 362.761719 394.390625 362.578125 394.71875 C 362.398438 395.046875 362.285156 395.394531 362.238281 395.765625 C 362.195312 396.140625 362.222656 396.503906 362.324219 396.867188 C 362.425781 397.226562 362.589844 397.554688 362.820312 397.851562 C 363.046875 398.144531 363.324219 398.386719 363.648438 398.574219 C 373.789062 404.214844 382.832031 413.890625 382.921875 413.984375 C 383.484375 414.589844 385.574219 415.351562 386.945312 414.136719 C 387.226562 413.878906 387.445312 413.582031 387.605469 413.238281 C 387.765625 412.894531 387.851562 412.535156 387.867188 412.15625 C 387.878906 411.777344 387.820312 411.410156 387.6875 411.054688 C 387.554688 410.703125 387.359375 410.386719 387.097656 410.109375 C 386.703125 409.6875 377.367188 399.683594 366.417969 393.59375 Z M 366.417969 393.59375 " fill-opacity="1" fill-rule="nonzero"/><path fill="#ffffff" d="M 366.414062 414.640625 C 366.085938 414.464844 365.734375 414.355469 365.363281 414.316406 C 364.992188 414.277344 364.625 414.3125 364.265625 414.417969 C 363.90625 414.523438 363.582031 414.691406 363.289062 414.925781 C 362.996094 415.160156 362.761719 415.441406 362.578125 415.769531 C 362.394531 416.09375 362.285156 416.445312 362.238281 416.816406 C 362.195312 417.1875 362.222656 417.554688 362.324219 417.914062 C 362.421875 418.273438 362.589844 418.601562 362.816406 418.898438 C 363.046875 419.195312 363.324219 419.4375 363.648438 419.621094 C 373.789062 425.261719 382.832031 434.9375 382.921875 435.035156 C 383.480469 435.640625 385.613281 436.398438 386.945312 435.183594 C 387.222656 434.929688 387.441406 434.628906 387.601562 434.285156 C 387.757812 433.941406 387.84375 433.582031 387.859375 433.203125 C 387.875 432.824219 387.8125 432.460938 387.683594 432.105469 C 387.550781 431.75 387.355469 431.4375 387.097656 431.160156 C 386.703125 430.738281 377.367188 420.730469 366.414062 414.640625 Z M 366.414062 414.640625 " fill-opacity="1" fill-rule="nonzero"/><g clip-path="url(#id3)"><path fill="#ffffff" d="M 534.792969 344.128906 C 534.40625 344.121094 534.039062 344.1875 533.679688 344.328125 C 533.324219 344.46875 533.007812 344.671875 532.734375 344.941406 C 532.460938 345.207031 532.25 345.519531 532.101562 345.871094 C 531.953125 346.226562 531.878906 346.59375 531.878906 346.976562 L 531.878906 493.203125 C 499.050781 478.136719 466.609375 479.105469 444.804688 482.730469 C 437.132812 484.003906 429.578125 485.769531 422.136719 488.03125 L 422.144531 488.03125 C 411 489.316406 411.644531 480.742188 411.644531 480.742188 L 411.644531 356.183594 C 411.644531 347.035156 417.03125 343.96875 417.117188 343.917969 C 423.308594 341.746094 429.601562 339.9375 436 338.488281 C 436.621094 338.359375 437.152344 338.0625 437.589844 337.601562 C 437.792969 337.375 437.957031 337.125 438.078125 336.851562 C 438.203125 336.574219 438.28125 336.285156 438.3125 335.984375 C 438.34375 335.683594 438.328125 335.382812 438.261719 335.085938 C 438.199219 334.792969 438.09375 334.511719 437.941406 334.25 C 437.789062 333.988281 437.597656 333.757812 437.375 333.554688 C 437.148438 333.355469 436.894531 333.191406 436.617188 333.070312 C 436.339844 332.949219 436.050781 332.875 435.75 332.84375 C 435.449219 332.816406 435.152344 332.832031 434.855469 332.898438 C 424.847656 335.097656 415.136719 338.214844 405.71875 342.246094 C 403.058594 337.703125 396.296875 327.480469 384.011719 316.800781 C 369.164062 303.886719 343.085938 287.894531 303.15625 285.015625 C 302.761719 284.984375 302.375 285.035156 302.003906 285.167969 C 301.628906 285.296875 301.296875 285.496094 301.007812 285.769531 C 300.714844 286.039062 300.492188 286.355469 300.335938 286.71875 C 300.179688 287.082031 300.101562 287.460938 300.101562 287.859375 L 300.101562 333.449219 C 295.28125 334.78125 283.351562 338.347656 273.695312 343.433594 C 273.234375 343.679688 272.867188 344.03125 272.601562 344.480469 C 272.332031 344.929688 272.199219 345.417969 272.203125 345.941406 L 272.203125 521.660156 C 272.203125 521.882812 272.226562 522.105469 272.277344 522.320312 C 272.328125 522.539062 272.398438 522.746094 272.496094 522.945312 C 272.59375 523.144531 272.710938 523.332031 272.851562 523.503906 C 272.992188 523.679688 273.148438 523.832031 273.324219 523.96875 C 273.496094 524.105469 273.6875 524.222656 273.886719 524.316406 C 274.089844 524.410156 274.296875 524.480469 274.515625 524.527344 C 274.734375 524.574219 274.953125 524.59375 275.175781 524.589844 C 275.398438 524.585938 275.617188 524.558594 275.832031 524.503906 C 343.84375 505.191406 395.269531 521.539062 402.574219 524.097656 C 403.191406 524.3125 403.828125 524.421875 404.484375 524.421875 L 404.511719 524.421875 C 405.167969 524.421875 405.800781 524.316406 406.417969 524.105469 C 413.804688 521.554688 465.910156 505.183594 533.949219 524.503906 C 536.28125 524.9375 537.578125 523.746094 537.578125 521.679688 L 537.578125 346.976562 C 537.578125 346.605469 537.507812 346.246094 537.367188 345.902344 C 537.226562 345.558594 537.023438 345.25 536.765625 344.984375 C 536.503906 344.71875 536.203125 344.511719 535.863281 344.363281 C 535.519531 344.214844 535.164062 344.136719 534.792969 344.128906 Z M 401.652344 517.769531 C 390.730469 514.441406 379.59375 512.167969 368.242188 510.941406 C 353.09375 509.28125 337.929688 509.046875 322.738281 510.234375 C 307.550781 511.425781 292.605469 514.019531 277.902344 518.019531 L 277.902344 511.925781 C 333.230469 487.785156 392.746094 508.5 401.652344 511.867188 Z M 401.652344 505.78125 C 389.234375 501.429688 376.507812 498.355469 363.472656 496.550781 C 341.683594 493.46875 309.449219 492.65625 277.902344 505.726562 L 277.902344 499.496094 C 310.148438 483.894531 342.148438 484.777344 363.460938 488.320312 C 376.660156 490.464844 389.390625 494.203125 401.652344 499.53125 Z M 401.652344 487.546875 C 397.949219 482.375 372.027344 441.558594 305.800781 436.753906 L 305.800781 290.949219 C 342.300781 294.269531 366.269531 308.976562 380.0625 320.90625 C 393.636719 332.652344 400.246094 344.035156 401.652344 346.636719 Z M 531.878906 518.019531 C 510.765625 512.34375 489.277344 509.492188 467.417969 509.472656 C 439.132812 509.472656 413.035156 516.003906 407.351562 517.789062 L 407.351562 511.9375 C 415.734375 508.773438 476.183594 487.632812 531.878906 511.929688 Z M 531.878906 505.726562 C 500.320312 492.65625 467.925781 493.46875 446.003906 496.550781 C 432.808594 498.363281 419.925781 501.460938 407.351562 505.851562 L 407.351562 499.542969 C 417.523438 495.023438 474.976562 471.972656 531.878906 499.492188 Z M 531.878906 505.726562 " fill-opacity="1" fill-rule="nonzero"/></g><path fill="#ffffff" d="M 441.195312 348.964844 C 440.277344 348.898438 439.367188 348.964844 438.464844 349.167969 C 437.566406 349.371094 436.714844 349.699219 435.914062 350.152344 C 435.109375 350.609375 434.390625 351.167969 433.753906 351.839844 C 433.117188 352.507812 432.59375 353.253906 432.179688 354.078125 C 431.761719 354.898438 431.476562 355.765625 431.320312 356.675781 C 431.160156 357.585938 431.140625 358.496094 431.25 359.414062 C 431.363281 360.328125 431.609375 361.207031 431.980469 362.050781 C 432.355469 362.894531 432.84375 363.667969 433.445312 364.363281 L 455.960938 390.480469 C 456.363281 390.941406 456.804688 391.363281 457.285156 391.738281 C 457.769531 392.113281 458.285156 392.441406 458.832031 392.714844 C 459.378906 392.992188 459.949219 393.210938 460.539062 393.371094 C 461.128906 393.535156 461.726562 393.640625 462.339844 393.683594 C 462.949219 393.730469 463.558594 393.714844 464.167969 393.640625 C 464.773438 393.566406 465.367188 393.433594 465.949219 393.242188 C 466.53125 393.050781 467.089844 392.800781 467.621094 392.5 C 468.15625 392.199219 468.652344 391.847656 469.117188 391.449219 C 469.871094 390.796875 470.503906 390.042969 471.015625 389.1875 C 471.53125 388.335938 471.894531 387.421875 472.117188 386.449219 C 472.335938 385.476562 472.402344 384.496094 472.308594 383.5 C 472.214844 382.507812 471.96875 381.554688 471.570312 380.640625 L 483.960938 369.953125 L 507.015625 396.691406 C 507.804688 397.609375 508.738281 398.339844 509.816406 398.886719 C 510.898438 399.429688 512.042969 399.742188 513.25 399.828125 C 513.476562 399.847656 513.707031 399.855469 513.933594 399.855469 C 514.804688 399.855469 515.660156 399.730469 516.496094 399.484375 C 517.332031 399.238281 518.117188 398.878906 518.851562 398.40625 C 519.585938 397.933594 520.238281 397.367188 520.808594 396.707031 C 521.382812 396.046875 521.847656 395.320312 522.210938 394.527344 C 522.574219 393.734375 522.816406 392.90625 522.941406 392.042969 C 523.066406 391.179688 523.066406 390.316406 522.945312 389.449219 C 522.820312 388.585938 522.582031 387.757812 522.21875 386.964844 C 521.859375 386.167969 521.394531 385.441406 520.824219 384.78125 L 497.769531 358.042969 L 510.15625 347.355469 C 511.464844 348.175781 512.886719 348.640625 514.429688 348.753906 C 514.664062 348.769531 514.894531 348.777344 515.128906 348.777344 C 516.019531 348.777344 516.894531 348.648438 517.75 348.398438 C 518.609375 348.144531 519.410156 347.777344 520.160156 347.292969 C 520.910156 346.8125 521.578125 346.230469 522.164062 345.558594 C 522.746094 344.882812 523.226562 344.136719 523.597656 343.328125 C 523.96875 342.515625 524.21875 341.667969 524.34375 340.78125 C 524.472656 339.898438 524.472656 339.015625 524.347656 338.132812 C 524.222656 337.25 523.972656 336.398438 523.605469 335.585938 C 523.234375 334.773438 522.757812 334.03125 522.175781 333.355469 L 499.664062 307.242188 C 499.300781 306.820312 498.90625 306.4375 498.476562 306.085938 C 498.042969 305.738281 497.585938 305.429688 497.101562 305.164062 C 496.617188 304.894531 496.113281 304.671875 495.585938 304.496094 C 495.0625 304.316406 494.527344 304.1875 493.980469 304.105469 C 493.429688 304.023438 492.878906 303.992188 492.328125 304.007812 C 491.773438 304.023438 491.226562 304.085938 490.683594 304.203125 C 490.140625 304.316406 489.613281 304.476562 489.097656 304.683594 C 488.585938 304.890625 488.09375 305.144531 487.625 305.4375 C 487.15625 305.734375 486.71875 306.066406 486.308594 306.441406 C 485.898438 306.816406 485.527344 307.222656 485.191406 307.660156 C 484.855469 308.101562 484.558594 308.566406 484.304688 309.0625 C 484.050781 309.554688 483.84375 310.066406 483.679688 310.59375 C 483.519531 311.125 483.402344 311.664062 483.335938 312.214844 C 483.269531 312.765625 483.253906 313.316406 483.285156 313.867188 C 483.316406 314.421875 483.398438 314.96875 483.527344 315.507812 C 483.65625 316.046875 483.832031 316.570312 484.054688 317.074219 L 445.46875 350.363281 C 444.160156 349.542969 442.734375 349.078125 441.195312 348.964844 Z M 517.328125 390.988281 C 517.277344 391.679688 517.039062 392.296875 516.613281 392.839844 C 516.191406 393.386719 515.648438 393.765625 514.992188 393.984375 C 514.335938 394.199219 513.675781 394.214844 513.007812 394.03125 C 512.339844 393.847656 511.78125 393.492188 511.332031 392.96875 L 492.183594 370.765625 L 499.484375 368.757812 L 516.511719 388.503906 C 517.128906 389.21875 517.402344 390.046875 517.328125 390.988281 Z M 487.457031 321.664062 L 506.121094 343.308594 L 468.164062 376.054688 L 449.5 354.410156 Z M 487.457031 321.664062 " fill-opacity="1" fill-rule="nonzero"/><path fill="#ffffff" d="M 482.390625 415.324219 L 448.234375 415.324219 C 447.59375 415.324219 446.960938 415.386719 446.332031 415.511719 C 445.707031 415.636719 445.09375 415.824219 444.503906 416.070312 C 443.914062 416.316406 443.351562 416.617188 442.820312 416.972656 C 442.289062 417.328125 441.792969 417.730469 441.34375 418.183594 C 440.890625 418.636719 440.484375 419.128906 440.128906 419.660156 C 439.773438 420.195312 439.472656 420.757812 439.226562 421.347656 C 438.980469 421.9375 438.796875 422.546875 438.671875 423.175781 C 438.546875 423.804688 438.480469 424.4375 438.480469 425.078125 L 438.480469 426.960938 L 438.230469 426.960938 C 437.535156 426.960938 436.847656 427.03125 436.167969 427.167969 C 435.484375 427.300781 434.824219 427.503906 434.183594 427.769531 C 433.542969 428.035156 432.933594 428.363281 432.355469 428.75 C 431.777344 429.132812 431.242188 429.574219 430.753906 430.0625 C 430.261719 430.554688 429.824219 431.089844 429.4375 431.667969 C 429.050781 432.246094 428.722656 432.855469 428.457031 433.496094 C 428.191406 434.136719 427.992188 434.800781 427.855469 435.480469 C 427.71875 436.160156 427.648438 436.847656 427.648438 437.542969 L 427.648438 442.96875 C 427.648438 443.347656 427.722656 443.710938 427.867188 444.058594 C 428.011719 444.410156 428.214844 444.71875 428.484375 444.984375 C 428.75 445.253906 429.058594 445.457031 429.40625 445.601562 C 429.757812 445.746094 430.121094 445.820312 430.496094 445.820312 L 500.128906 445.820312 C 500.507812 445.820312 500.871094 445.746094 501.21875 445.601562 C 501.566406 445.457031 501.875 445.253906 502.144531 444.984375 C 502.410156 444.71875 502.617188 444.410156 502.761719 444.058594 C 502.90625 443.710938 502.976562 443.347656 502.976562 442.96875 L 502.976562 437.546875 C 502.976562 436.851562 502.910156 436.164062 502.773438 435.480469 C 502.636719 434.800781 502.433594 434.140625 502.167969 433.496094 C 501.902344 432.855469 501.578125 432.246094 501.191406 431.667969 C 500.804688 431.089844 500.367188 430.558594 499.875 430.066406 C 499.382812 429.574219 498.847656 429.136719 498.273438 428.75 C 497.695312 428.363281 497.085938 428.039062 496.445312 427.769531 C 495.800781 427.503906 495.140625 427.304688 494.460938 427.167969 C 493.777344 427.03125 493.089844 426.964844 492.398438 426.960938 L 492.144531 426.960938 L 492.144531 425.078125 C 492.144531 424.441406 492.082031 423.804688 491.957031 423.175781 C 491.828125 422.550781 491.644531 421.941406 491.398438 421.347656 C 491.152344 420.757812 490.851562 420.195312 490.496094 419.664062 C 490.140625 419.128906 489.738281 418.636719 489.285156 418.183594 C 488.832031 417.730469 488.339844 417.328125 487.808594 416.972656 C 487.273438 416.617188 486.710938 416.316406 486.121094 416.070312 C 485.53125 415.824219 484.921875 415.636719 484.292969 415.511719 C 483.664062 415.386719 483.03125 415.324219 482.390625 415.324219 Z M 482.390625 421.023438 C 482.65625 421.023438 482.921875 421.046875 483.179688 421.101562 C 483.441406 421.152344 483.695312 421.230469 483.941406 421.332031 C 484.1875 421.433594 484.421875 421.558594 484.640625 421.707031 C 484.863281 421.855469 485.066406 422.023438 485.257812 422.210938 C 485.445312 422.398438 485.613281 422.605469 485.761719 422.824219 C 485.910156 423.046875 486.035156 423.28125 486.136719 423.527344 C 486.238281 423.773438 486.316406 424.027344 486.367188 424.289062 C 486.417969 424.546875 486.445312 424.8125 486.445312 425.078125 L 486.445312 426.960938 L 452.042969 426.960938 C 452.019531 426.59375 452.03125 426.226562 452.078125 425.863281 C 452.128906 425.496094 452.210938 425.140625 452.328125 424.792969 C 452.449219 424.445312 452.597656 424.109375 452.785156 423.792969 C 452.96875 423.472656 453.183594 423.175781 453.425781 422.902344 C 453.667969 422.625 453.9375 422.375 454.230469 422.152344 C 454.523438 421.929688 454.835938 421.738281 455.164062 421.574219 C 455.496094 421.414062 455.839844 421.289062 456.195312 421.195312 C 456.550781 421.101562 456.914062 421.042969 457.28125 421.023438 Z M 492.394531 432.660156 C 492.714844 432.660156 493.03125 432.691406 493.347656 432.753906 C 493.660156 432.816406 493.96875 432.910156 494.261719 433.03125 C 494.558594 433.15625 494.839844 433.304688 495.105469 433.484375 C 495.371094 433.664062 495.621094 433.867188 495.847656 434.09375 C 496.074219 434.320312 496.273438 434.566406 496.453125 434.832031 C 496.632812 435.097656 496.78125 435.378906 496.90625 435.675781 C 497.027344 435.972656 497.121094 436.277344 497.183594 436.589844 C 497.246094 436.90625 497.277344 437.222656 497.277344 437.542969 L 497.277344 440.121094 L 443.835938 440.121094 C 443.835938 432.734375 452.042969 432.65625 452.042969 432.65625 Z M 492.394531 432.660156 " fill-opacity="1" fill-rule="nonzero"/></svg>