<svg xmlns="http://www.w3.org/2000/svg" xmlns:xlink="http://www.w3.org/1999/xlink" width="1080" zoomAndPan="magnify" viewBox="0 0 810 809.999993" height="1080" preserveAspectRatio="xMidYMid meet" version="1.0"><defs><clipPath id="id1"><path d="M 198.449219 198.449219 L 611.550781 198.449219 L 611.550781 611.550781 L 198.449219 611.550781 Z M 198.449219 198.449219 " clip-rule="nonzero"/></clipPath><clipPath id="id2"><path d="M 611.550781 405.003906 C 611.550781 519.070312 519.074219 611.550781 405 611.550781 C 290.925781 611.550781 198.449219 519.070312 198.449219 405.003906 C 198.449219 290.925781 290.925781 198.449219 405 198.449219 C 519.074219 198.449219 611.550781 290.925781 611.550781 405.003906 Z M 611.550781 405.003906 " clip-rule="nonzero"/></clipPath><clipPath id="id3"><path d="M 250.101562 343 L 334 343 L 334 447 L 250.101562 447 Z M 250.101562 343 " clip-rule="nonzero"/></clipPath></defs><g clip-path="url(#id1)"><g clip-path="url(#id2)"><path fill="#004aad" d="M 198.449219 198.449219 L 611.550781 198.449219 L 611.550781 611.550781 L 198.449219 611.550781 Z M 198.449219 198.449219 " fill-opacity="1" fill-rule="nonzero"/></g></g><path fill="#ffffff" d="M 492.28125 452.601562 L 486.171875 445.15625 C 465.878906 422.160156 436.765625 405.582031 426.976562 400.53125 L 421.894531 408.976562 C 418.1875 415.054688 410.394531 418.109375 403.285156 416.425781 L 402.945312 416.425781 C 394.496094 413.714844 389.414062 404.925781 391.441406 396.453125 C 393.125 388.664062 396.179688 381.246094 400.234375 374.484375 L 391.441406 373.113281 C 385.363281 372.113281 378.914062 373.457031 373.519531 376.507812 L 368.4375 379.21875 C 362.015625 382.585938 354.566406 382.929688 348.144531 380.21875 L 336.984375 375.480469 L 296.027344 439.421875 L 311.269531 449.550781 L 319.375 441.445312 C 322.429688 438.394531 326.480469 436.710938 330.878906 436.710938 C 335.273438 436.710938 339.324219 438.394531 342.378906 441.445312 C 345.089844 444.15625 346.773438 447.523438 347.117188 451.605469 C 352.539062 450.234375 358.277344 451.605469 362.671875 455.65625 C 365.726562 458.679688 367.410156 462.761719 367.410156 467.15625 C 367.410156 468.496094 367.097656 469.835938 366.753906 471.207031 C 370.464844 471.546875 373.859375 473.230469 376.542969 475.941406 C 380.625 479.992188 381.964844 486.070312 380.625 491.492188 C 384.335938 491.835938 388.074219 493.519531 390.414062 496.226562 C 393.46875 499.28125 395.152344 503.332031 395.152344 507.726562 C 395.152344 511.464844 393.8125 515.171875 391.441406 517.882812 L 399.890625 528.011719 C 404.285156 532.433594 411.734375 532.433594 416.128906 528.011719 C 418.1875 525.988281 419.527344 522.960938 419.527344 519.910156 C 419.527344 516.855469 418.5 514.148438 416.472656 512.148438 L 413.105469 508.753906 C 411.394531 507.042969 411.394531 504.359375 413.105469 502.992188 C 414.789062 501.308594 417.5 501.308594 418.84375 502.992188 L 422.238281 506.386719 L 424.921875 509.097656 C 429.316406 513.492188 436.765625 513.492188 441.53125 509.097656 L 441.847656 508.753906 C 445.898438 504.359375 445.898438 497.253906 441.53125 492.863281 L 435.425781 485.414062 C 433.742188 483.703125 433.742188 481.019531 435.425781 479.652344 C 437.109375 477.96875 439.820312 477.96875 441.191406 479.652344 L 451.324219 489.808594 C 455.746094 494.203125 463.507812 494.203125 467.90625 489.808594 C 469.929688 487.78125 471.300781 484.730469 471.300781 481.707031 C 471.300781 478.652344 470.273438 475.941406 468.246094 473.574219 L 457.429688 463.074219 C 456.746094 462.417969 456.058594 461.078125 456.058594 460.050781 C 456.058594 459.023438 456.402344 458.023438 457.429688 456.996094 C 459.113281 455.3125 461.824219 455.3125 463.167969 456.996094 L 476.351562 470.207031 C 478.722656 472.574219 482.117188 473.917969 485.859375 473.917969 C 488.882812 473.917969 491.9375 472.574219 493.964844 470.519531 C 495.988281 468.496094 496.988281 465.441406 496.988281 462.761719 C 496.988281 461.390625 496.675781 459.707031 496.332031 458.367188 C 494.992188 456.3125 493.621094 454.285156 492.28125 452.601562 " fill-opacity="1" fill-rule="nonzero"/><path fill="#ffffff" d="M 443.902344 373.113281 L 429.003906 368.035156 C 421.554688 365.695312 413.417969 368.375 409.023438 374.824219 L 408.367188 375.824219 C 403.972656 382.242188 400.917969 389.691406 399.234375 397.480469 C 398.207031 401.875 400.917969 406.265625 405.3125 407.949219 C 408.710938 408.976562 412.761719 407.636719 414.789062 404.242188 L 422.238281 392.742188 C 422.921875 391.375 424.265625 390.71875 425.605469 390.71875 C 426.292969 390.71875 426.976562 390.71875 427.320312 391.03125 C 429.6875 392.058594 480.433594 417.421875 503.753906 454.285156 L 528.128906 440.421875 L 486.515625 375.480469 C 472.300781 378.535156 457.746094 377.847656 443.902344 373.113281 " fill-opacity="1" fill-rule="nonzero"/><path fill="#ffffff" d="M 385.019531 501.992188 C 383.652344 500.652344 381.625 499.625 379.253906 499.625 C 377.230469 499.625 375.203125 500.28125 373.519531 501.992188 L 362.328125 513.148438 C 359.304688 516.171875 359.304688 521.28125 362.328125 524.304688 C 365.382812 527.355469 370.464844 527.355469 373.519531 524.304688 L 384.679688 513.148438 C 386.019531 511.777344 387.046875 509.78125 387.046875 507.414062 C 387.390625 505.359375 386.363281 503.332031 385.019531 501.992188 " fill-opacity="1" fill-rule="nonzero"/><path fill="#ffffff" d="M 370.808594 481.707031 C 369.464844 480.335938 367.410156 479.335938 365.042969 479.335938 C 363.015625 479.335938 360.988281 479.992188 359.304688 481.707031 L 345.433594 495.570312 C 344.0625 496.914062 343.0625 498.9375 343.0625 501.308594 C 343.0625 503.332031 343.75 505.359375 345.433594 507.042969 C 348.488281 510.09375 353.539062 510.09375 356.59375 507.042969 L 370.464844 493.203125 C 373.859375 489.808594 373.859375 484.730469 370.808594 481.707031 " fill-opacity="1" fill-rule="nonzero"/><path fill="#ffffff" d="M 358.960938 467.15625 C 358.960938 465.128906 358.277344 463.074219 356.59375 461.390625 C 354.910156 459.707031 352.882812 459.023438 350.828125 459.023438 C 348.800781 459.023438 346.773438 459.707031 345.089844 461.390625 L 328.164062 478.308594 C 326.824219 479.652344 325.796875 481.707031 325.796875 484.074219 C 325.796875 486.070312 326.480469 488.125 328.164062 489.808594 C 331.21875 492.863281 336.300781 492.863281 339.324219 489.808594 L 356.25 472.890625 C 357.933594 471.207031 358.960938 469.179688 358.960938 467.15625 " fill-opacity="1" fill-rule="nonzero"/><path fill="#ffffff" d="M 336.300781 447.523438 C 334.929688 446.183594 332.902344 445.15625 330.535156 445.15625 C 328.507812 445.15625 326.480469 445.839844 324.796875 447.523438 L 310.925781 461.390625 C 309.558594 462.761719 308.558594 464.785156 308.558594 467.15625 C 308.558594 469.179688 309.214844 471.207031 310.925781 472.890625 C 313.953125 475.941406 319.03125 475.941406 322.085938 472.890625 L 335.957031 459.023438 C 339.667969 455.65625 339.667969 450.578125 336.300781 447.523438 " fill-opacity="1" fill-rule="nonzero"/><g clip-path="url(#id3)"><path fill="#ffffff" d="M 280.816406 427.582031 C 278.445312 430.976562 274.050781 431.972656 270.3125 429.949219 C 266.945312 427.582031 265.917969 423.1875 267.941406 419.449219 C 270.3125 416.082031 275.050781 415.054688 278.445312 417.082031 C 282.15625 419.136719 283.183594 423.84375 280.816406 427.582031 Z M 330.535156 356.878906 L 311.269531 344.722656 C 307.871094 342.667969 303.476562 343.695312 301.449219 346.75 L 252.046875 423.84375 C 250.019531 427.238281 251.046875 431.632812 254.070312 433.65625 L 273.367188 445.839844 C 275.050781 446.839844 276.734375 447.183594 278.761719 446.839844 C 280.472656 446.527344 282.15625 445.5 283.183594 443.816406 L 332.21875 366.695312 C 334.617188 363.640625 333.929688 359.246094 330.535156 356.878906 " fill-opacity="1" fill-rule="nonzero"/></g><path fill="#ffffff" d="M 553.160156 429.949219 C 549.789062 432.316406 545.050781 431.289062 542.683594 427.582031 C 540.316406 424.183594 541.3125 419.449219 545.050781 417.082031 C 548.449219 414.710938 553.160156 415.738281 555.527344 419.449219 C 557.582031 422.84375 556.554688 427.582031 553.160156 429.949219 Z M 571.425781 423.84375 L 522.046875 346.75 C 521.019531 345.039062 519.335938 344.039062 517.625 343.695312 C 515.96875 343.355469 513.914062 343.695312 512.230469 344.722656 L 492.9375 356.878906 C 489.566406 358.902344 488.539062 363.296875 490.910156 366.695312 L 539.972656 443.816406 C 542 447.183594 546.394531 448.210938 549.789062 445.839844 L 569.054688 433.65625 C 572.453125 431.632812 573.480469 427.238281 571.425781 423.84375 " fill-opacity="1" fill-rule="nonzero"/><path fill="#ffffff" d="M 354.566406 289.230469 L 437.449219 289.230469 L 437.449219 301.414062 C 437.449219 305.464844 442.1875 307.832031 445.242188 305.121094 L 472.644531 283.835938 C 475.355469 281.8125 475.355469 278.074219 472.644531 276.046875 L 445.242188 254.734375 C 441.847656 252.367188 437.449219 254.390625 437.449219 258.472656 L 437.449219 270.625 L 354.566406 270.625 C 352.199219 270.625 350.515625 272.339844 350.515625 274.707031 L 350.515625 285.175781 C 350.515625 287.203125 352.199219 289.230469 354.566406 289.230469 " fill-opacity="1" fill-rule="nonzero"/><path fill="#ffffff" d="M 378.257812 353.167969 C 381.625 355.539062 386.019531 353.511719 386.019531 349.429688 L 386.019531 337.277344 L 468.933594 337.277344 C 471.300781 337.277344 472.984375 335.566406 472.984375 333.195312 L 472.984375 322.726562 C 472.984375 320.359375 471.300781 318.675781 468.933594 318.675781 L 386.019531 318.675781 L 386.019531 306.492188 C 386.019531 302.441406 381.28125 300.070312 378.257812 302.78125 L 350.828125 324.066406 C 348.144531 326.121094 348.144531 329.832031 350.828125 331.855469 L 378.257812 353.167969 " fill-opacity="1" fill-rule="nonzero"/></svg>