<svg xmlns="http://www.w3.org/2000/svg" xmlns:xlink="http://www.w3.org/1999/xlink" width="500" zoomAndPan="magnify" viewBox="0 0 375 374.999991" height="500" preserveAspectRatio="xMidYMid meet" version="1.0"><defs><g/><clipPath id="id1"><path d="M 150 48.652344 L 271.769531 48.652344 L 271.769531 206 L 150 206 Z M 150 48.652344 " clip-rule="nonzero"/></clipPath><clipPath id="id2"><path d="M 103.019531 60 L 225 60 L 225 217.402344 L 103.019531 217.402344 Z M 103.019531 60 " clip-rule="nonzero"/></clipPath></defs><path fill="#98ccec" d="M 180.347656 193.09375 L 194.480469 193.09375 L 194.480469 73 L 180.347656 73 L 180.347656 193.09375 " fill-opacity="1" fill-rule="nonzero"/><g clip-path="url(#id1)"><path fill="#ffffff" d="M 159.734375 53.316406 L 159.734375 53.3125 C 159.835938 53.277344 159.933594 53.246094 160.035156 53.214844 C 160.445312 53.070312 160.859375 52.929688 161.277344 52.796875 C 161.394531 52.757812 161.515625 52.71875 161.636719 52.679688 C 162.085938 52.539062 162.539062 52.394531 162.992188 52.257812 C 163.042969 52.242188 163.09375 52.226562 163.144531 52.210938 C 163.597656 52.078125 164.050781 51.941406 164.507812 51.8125 L 164.507812 51.816406 C 171.792969 49.765625 179.472656 48.664062 187.414062 48.664062 C 234.019531 48.664062 271.796875 86.441406 271.796875 133.046875 C 271.796875 163.578125 255.585938 190.316406 231.300781 205.132812 L 231.300781 189.496094 C 248.105469 176.414062 258.917969 155.996094 258.917969 133.046875 C 258.917969 93.558594 226.902344 61.542969 187.414062 61.542969 C 179.402344 61.542969 171.699219 62.867188 164.507812 65.296875 L 164.507812 167.726562 L 150.378906 167.726562 L 150.378906 57.207031 C 153.402344 55.730469 156.523438 54.429688 159.734375 53.316406 " fill-opacity="1" fill-rule="nonzero"/></g><g clip-path="url(#id2)"><path fill="#98ccec" d="M 143.527344 60.960938 L 143.527344 76.597656 C 126.722656 89.679688 115.914062 110.097656 115.914062 133.046875 C 115.914062 172.535156 147.925781 204.550781 187.414062 204.550781 C 195.425781 204.550781 203.128906 203.230469 210.320312 200.800781 L 210.320312 98.367188 L 224.449219 98.367188 L 224.449219 208.886719 C 220.789062 210.675781 216.976562 212.207031 213.042969 213.460938 C 212.953125 213.492188 212.855469 213.519531 212.765625 213.546875 C 212.40625 213.660156 212.046875 213.773438 211.6875 213.882812 C 211.511719 213.933594 211.332031 213.984375 211.160156 214.035156 C 210.878906 214.117188 210.601562 214.203125 210.320312 214.28125 L 210.320312 214.277344 C 203.035156 216.328125 195.355469 217.429688 187.414062 217.429688 C 140.808594 217.429688 103.03125 179.652344 103.03125 133.046875 C 103.03125 102.515625 119.242188 75.777344 143.527344 60.960938 " fill-opacity="1" fill-rule="nonzero"/></g><g fill="#ffffff" fill-opacity="1"><g transform="translate(38.533619, 288.962406)"><g><path d="M 2.671875 -26.703125 L 15.296875 -26.703125 C 18.296875 -26.703125 20.679688 -26.097656 22.453125 -24.890625 C 24.222656 -23.679688 25.109375 -22.0625 25.109375 -20.03125 C 25.109375 -18.632812 24.703125 -17.40625 23.890625 -16.34375 C 23.078125 -15.289062 21.957031 -14.5625 20.53125 -14.15625 C 22.207031 -13.820312 23.539062 -13.046875 24.53125 -11.828125 C 25.519531 -10.609375 26.015625 -9.132812 26.015625 -7.40625 C 26.015625 -5.132812 25.09375 -3.332031 23.25 -2 C 21.40625 -0.664062 18.910156 0 15.765625 0 L 2.671875 0 Z M 9.421875 -21.515625 L 9.421875 -16.03125 L 14.921875 -16.03125 C 15.910156 -16.03125 16.695312 -16.273438 17.28125 -16.765625 C 17.863281 -17.265625 18.15625 -17.945312 18.15625 -18.8125 C 18.15625 -19.644531 17.863281 -20.300781 17.28125 -20.78125 C 16.695312 -21.269531 15.910156 -21.515625 14.921875 -21.515625 Z M 9.421875 -11.140625 L 9.421875 -5.234375 L 14.921875 -5.234375 C 16.191406 -5.234375 17.1875 -5.5 17.90625 -6.03125 C 18.632812 -6.5625 19 -7.296875 19 -8.234375 C 19 -9.128906 18.632812 -9.835938 17.90625 -10.359375 C 17.1875 -10.878906 16.191406 -11.140625 14.921875 -11.140625 Z M 9.421875 -11.140625 "/></g></g></g><g fill="#ffffff" fill-opacity="1"><g transform="translate(71.690532, 288.962406)"><g><path d="M 23.578125 -21.375 L 9.46875 -21.375 L 9.46875 -16.0625 L 22.203125 -16.0625 L 22.203125 -10.71875 L 9.46875 -10.71875 L 9.46875 -5.34375 L 24 -5.34375 L 24 0 L 2.671875 0 L 2.671875 -26.703125 L 23.578125 -26.703125 Z M 23.578125 -21.375 "/></g></g></g><g fill="#ffffff" fill-opacity="1"><g transform="translate(103.283119, 288.962406)"><g><path d="M 17.359375 0 L 10.34375 0 L -0.03125 -26.703125 L 7.21875 -26.703125 L 14.046875 -7.0625 L 20.875 -26.703125 L 27.859375 -26.703125 Z M 17.359375 0 "/></g></g></g><g fill="#ffffff" fill-opacity="1"><g transform="translate(136.974196, 288.962406)"><g><path d="M 9.46875 0 L 2.671875 0 L 2.671875 -26.703125 L 9.46875 -26.703125 Z M 9.46875 0 "/></g></g></g><g fill="#ffffff" fill-opacity="1"><g transform="translate(154.983831, 288.962406)"><g><path d="M 9.46875 -5.6875 L 20.796875 -5.6875 L 20.796875 0 L 2.671875 0 L 2.671875 -26.703125 L 9.46875 -26.703125 Z M 9.46875 -5.6875 "/></g></g></g><g fill="#ffffff" fill-opacity="1"><g transform="translate(182.226827, 288.962406)"><g><path d="M 16.453125 -29.03125 L 11.40625 -29.03125 L 15.453125 -35.453125 L 21.40625 -33.34375 Z M 20.40625 -4.921875 L 8.734375 -4.921875 L 6.796875 0 L -0.1875 0 L 11.328125 -26.703125 L 18.3125 -26.703125 L 29.578125 0 L 22.328125 0 Z M 18.421875 -10.078125 L 14.609375 -19.953125 L 10.71875 -10.078125 Z M 18.421875 -10.078125 "/></g></g></g><g fill="#ffffff" fill-opacity="1"><g transform="translate(217.482231, 288.962406)"><g><path d="M 28.734375 -0.84375 L 31.140625 3.359375 C 30.117188 4.273438 28.90625 4.992188 27.5 5.515625 C 26.101562 6.035156 24.734375 6.296875 23.390625 6.296875 C 21.554688 6.296875 19.890625 5.765625 18.390625 4.703125 C 16.890625 3.648438 15.691406 2.1875 14.796875 0.3125 C 10.804688 0.175781 7.492188 -1.1875 4.859375 -3.78125 C 2.234375 -6.375 0.921875 -9.578125 0.921875 -13.390625 C 0.921875 -17.285156 2.289062 -20.515625 5.03125 -23.078125 C 7.78125 -25.648438 11.21875 -26.9375 15.34375 -26.9375 C 19.488281 -26.9375 22.929688 -25.644531 25.671875 -23.0625 C 28.421875 -20.476562 29.796875 -17.253906 29.796875 -13.390625 C 29.796875 -10.460938 28.988281 -7.851562 27.375 -5.5625 C 25.757812 -3.28125 23.601562 -1.644531 20.90625 -0.65625 C 21.875 0.570312 22.957031 1.1875 24.15625 1.1875 C 25.445312 1.1875 26.972656 0.507812 28.734375 -0.84375 Z M 10.0625 -18.984375 C 8.59375 -17.472656 7.859375 -15.597656 7.859375 -13.359375 C 7.859375 -11.117188 8.601562 -9.226562 10.09375 -7.6875 C 11.582031 -6.144531 13.351562 -5.375 15.40625 -5.375 C 17.46875 -5.375 19.21875 -6.144531 20.65625 -7.6875 C 22.09375 -9.226562 22.8125 -11.117188 22.8125 -13.359375 C 22.8125 -15.597656 22.09375 -17.472656 20.65625 -18.984375 C 19.21875 -20.492188 17.472656 -21.25 15.421875 -21.25 C 13.328125 -21.25 11.539062 -20.492188 10.0625 -18.984375 Z M 10.0625 -18.984375 "/></g></g></g><g fill="#ffffff" fill-opacity="1"><g transform="translate(254.263795, 288.962406)"><g><path d="M 26.703125 -26.703125 L 26.703125 -11.21875 C 26.703125 -7.6875 25.609375 -4.878906 23.421875 -2.796875 C 21.234375 -0.722656 18.269531 0.3125 14.53125 0.3125 C 10.769531 0.3125 7.773438 -0.722656 5.546875 -2.796875 C 3.328125 -4.878906 2.21875 -7.6875 2.21875 -11.21875 L 2.21875 -26.703125 L 9 -26.703125 L 9 -11.21875 C 9 -9.4375 9.515625 -8.015625 10.546875 -6.953125 C 11.578125 -5.898438 12.921875 -5.375 14.578125 -5.375 C 16.203125 -5.375 17.503906 -5.894531 18.484375 -6.9375 C 19.460938 -7.988281 19.953125 -9.414062 19.953125 -11.21875 L 19.953125 -26.703125 Z M 26.703125 -26.703125 "/></g></g></g><g fill="#ffffff" fill-opacity="1"><g transform="translate(289.061349, 288.962406)"><g><path d="M 9.46875 0 L 2.671875 0 L 2.671875 -26.703125 L 9.46875 -26.703125 Z M 9.46875 0 "/></g></g></g><g fill="#ffffff" fill-opacity="1"><g transform="translate(307.070984, 288.962406)"><g><path d="M 20.40625 -4.921875 L 8.734375 -4.921875 L 6.796875 0 L -0.1875 0 L 11.328125 -26.703125 L 18.3125 -26.703125 L 29.578125 0 L 22.328125 0 Z M 18.421875 -10.078125 L 14.609375 -19.953125 L 10.71875 -10.078125 Z M 18.421875 -10.078125 "/></g></g></g><g fill="#ffffff" fill-opacity="1"><g transform="translate(74.716279, 323.218894)"><g><path d="M 4.144531 0.160156 C 6.007812 0.160156 7.1875 -0.746094 7.1875 -2.183594 C 7.1875 -3.410156 6.351562 -4.167969 4.179688 -4.671875 C 2.378906 -5.078125 1.742188 -5.605469 1.742188 -6.460938 C 1.742188 -7.40625 2.550781 -8.03125 3.9375 -8.03125 C 5.371094 -8.03125 6.242188 -7.34375 6.304688 -6.132812 L 7.039062 -6.132812 C 6.976562 -7.785156 5.824219 -8.742188 3.9375 -8.742188 C 2.109375 -8.742188 0.992188 -7.835938 0.992188 -6.460938 C 0.992188 -5.175781 1.886719 -4.464844 3.996094 -3.972656 C 5.726562 -3.59375 6.425781 -3.066406 6.425781 -2.171875 C 6.425781 -1.175781 5.554688 -0.550781 4.144531 -0.550781 C 2.660156 -0.550781 1.667969 -1.289062 1.59375 -2.550781 L 0.859375 -2.550781 C 0.917969 -0.894531 2.183594 0.160156 4.144531 0.160156 Z M 4.144531 0.160156 "/></g></g></g><g fill="#ffffff" fill-opacity="1"><g transform="translate(87.810854, 323.218894)"><g><path d="M 5.210938 0.160156 C 7.835938 0.160156 9.636719 -1.667969 9.636719 -4.292969 C 9.636719 -6.917969 7.835938 -8.742188 5.210938 -8.742188 C 2.601562 -8.742188 0.785156 -6.917969 0.785156 -4.292969 C 0.785156 -1.667969 2.601562 0.160156 5.210938 0.160156 Z M 1.546875 -4.292969 C 1.546875 -6.5 3.042969 -7.996094 5.210938 -7.996094 C 7.394531 -7.996094 8.890625 -6.5 8.890625 -4.292969 C 8.890625 -2.097656 7.394531 -0.589844 5.210938 -0.589844 C 3.042969 -0.589844 1.546875 -2.097656 1.546875 -4.292969 Z M 1.546875 -4.292969 "/></g></g></g><g fill="#ffffff" fill-opacity="1"><g transform="translate(103.271197, 323.218894)"><g><path d="M 1.386719 0 L 6.488281 0 L 6.488281 -0.710938 L 2.132812 -0.710938 L 2.132812 -8.582031 L 1.386719 -8.582031 Z M 1.386719 0 "/></g></g></g><g fill="#ffffff" fill-opacity="1"><g transform="translate(115.213535, 323.218894)"><g><path d="M 4.511719 0.148438 C 6.523438 0.148438 7.75 -1.175781 7.75 -3.382812 L 7.75 -8.582031 L 7.015625 -8.582031 L 7.015625 -3.421875 C 7.015625 -1.59375 6.105469 -0.578125 4.511719 -0.578125 C 2.917969 -0.578125 2.011719 -1.59375 2.011719 -3.421875 L 2.011719 -8.582031 L 1.273438 -8.582031 L 1.273438 -3.382812 C 1.273438 -1.175781 2.5 0.148438 4.511719 0.148438 Z M 4.511719 0.148438 "/></g></g></g><g fill="#ffffff" fill-opacity="1"><g transform="translate(129.276487, 323.218894)"><g><path d="M 4.265625 3.054688 L 4.980469 3.054688 C 5.800781 3.054688 6.304688 2.625 6.304688 1.925781 C 6.304688 1.261719 5.847656 0.847656 5.113281 0.796875 L 5.347656 0.160156 C 7.273438 0.0742188 8.839844 -1.089844 9.34375 -2.882812 L 8.558594 -2.882812 C 8.082031 -1.460938 6.757812 -0.589844 5.148438 -0.589844 C 3.054688 -0.589844 1.546875 -2.097656 1.546875 -4.292969 C 1.546875 -6.488281 3.054688 -7.996094 5.148438 -7.996094 C 6.71875 -7.996094 7.996094 -7.160156 8.484375 -5.800781 L 9.269531 -5.800781 C 8.707031 -7.601562 7.101562 -8.742188 5.136719 -8.742188 C 2.613281 -8.742188 0.785156 -6.902344 0.785156 -4.292969 C 0.785156 -1.789062 2.453125 0 4.808594 0.148438 L 4.453125 1.164062 L 4.550781 1.300781 L 4.929688 1.300781 C 5.40625 1.300781 5.664062 1.507812 5.664062 1.886719 C 5.664062 2.269531 5.40625 2.476562 4.929688 2.476562 L 4.265625 2.476562 Z M 4.265625 3.054688 "/></g></g></g><g fill="#ffffff" fill-opacity="1"><g transform="translate(144.39361, 323.218894)"><g><path d="M 5.210938 0.160156 C 7.835938 0.160156 9.636719 -1.667969 9.636719 -4.292969 C 9.636719 -6.917969 7.835938 -8.742188 5.210938 -8.742188 C 2.601562 -8.742188 0.785156 -6.917969 0.785156 -4.292969 C 0.785156 -1.667969 2.601562 0.160156 5.210938 0.160156 Z M 1.546875 -4.292969 C 1.546875 -6.5 3.042969 -7.996094 5.210938 -7.996094 C 7.394531 -7.996094 8.890625 -6.5 8.890625 -4.292969 C 8.890625 -2.097656 7.394531 -0.589844 5.210938 -0.589844 C 3.042969 -0.589844 1.546875 -2.097656 1.546875 -4.292969 Z M 3.433594 -9.589844 L 4.011719 -9.589844 L 4.011719 -9.773438 C 4.011719 -10.105469 4.179688 -10.3125 4.476562 -10.3125 C 5.039062 -10.3125 5.234375 -9.566406 6.046875 -9.566406 C 6.632812 -9.566406 7 -9.957031 7 -10.621094 L 7 -10.851562 L 6.425781 -10.851562 L 6.425781 -10.679688 C 6.425781 -10.335938 6.265625 -10.140625 5.960938 -10.140625 C 5.40625 -10.140625 5.199219 -10.890625 4.390625 -10.890625 C 3.789062 -10.890625 3.433594 -10.472656 3.433594 -9.820312 Z M 3.433594 -9.589844 "/></g></g></g><g fill="#ffffff" fill-opacity="1"><g transform="translate(159.853953, 323.218894)"><g><path d="M 1.386719 0 L 6.574219 0 L 6.574219 -0.699219 L 2.132812 -0.699219 L 2.132812 -4.035156 L 6.117188 -4.035156 L 6.117188 -4.722656 L 2.132812 -4.722656 L 2.132812 -7.886719 L 6.4375 -7.886719 L 6.4375 -8.582031 L 1.386719 -8.582031 Z M 1.386719 0 "/></g></g></g><g fill="#ffffff" fill-opacity="1"><g transform="translate(172.360147, 323.218894)"><g><path d="M 4.144531 0.160156 C 6.007812 0.160156 7.1875 -0.746094 7.1875 -2.183594 C 7.1875 -3.410156 6.351562 -4.167969 4.179688 -4.671875 C 2.378906 -5.078125 1.742188 -5.605469 1.742188 -6.460938 C 1.742188 -7.40625 2.550781 -8.03125 3.9375 -8.03125 C 5.371094 -8.03125 6.242188 -7.34375 6.304688 -6.132812 L 7.039062 -6.132812 C 6.976562 -7.785156 5.824219 -8.742188 3.9375 -8.742188 C 2.109375 -8.742188 0.992188 -7.835938 0.992188 -6.460938 C 0.992188 -5.175781 1.886719 -4.464844 3.996094 -3.972656 C 5.726562 -3.59375 6.425781 -3.066406 6.425781 -2.171875 C 6.425781 -1.175781 5.554688 -0.550781 4.144531 -0.550781 C 2.660156 -0.550781 1.667969 -1.289062 1.59375 -2.550781 L 0.859375 -2.550781 C 0.917969 -0.894531 2.183594 0.160156 4.144531 0.160156 Z M 4.144531 0.160156 "/></g></g></g><g fill="#ffffff" fill-opacity="1"><g transform="translate(185.454728, 323.218894)"><g/></g></g><g fill="#ffffff" fill-opacity="1"><g transform="translate(193.780991, 323.218894)"><g><path d="M 0.578125 0 L 1.816406 0 C 3.628906 0 4.511719 -1.003906 4.511719 -2.671875 L 4.511719 -8.582031 L 3.777344 -8.582031 L 3.777344 -2.710938 C 3.777344 -1.433594 3.210938 -0.710938 1.816406 -0.710938 L 0.578125 -0.710938 Z M 0.578125 0 "/></g></g></g><g fill="#ffffff" fill-opacity="1"><g transform="translate(204.693664, 323.218894)"><g><path d="M 4.511719 0.148438 C 6.523438 0.148438 7.75 -1.175781 7.75 -3.382812 L 7.75 -8.582031 L 7.015625 -8.582031 L 7.015625 -3.421875 C 7.015625 -1.59375 6.105469 -0.578125 4.511719 -0.578125 C 2.917969 -0.578125 2.011719 -1.59375 2.011719 -3.421875 L 2.011719 -8.582031 L 1.273438 -8.582031 L 1.273438 -3.382812 C 1.273438 -1.175781 2.5 0.148438 4.511719 0.148438 Z M 4.511719 0.148438 "/></g></g></g><g fill="#ffffff" fill-opacity="1"><g transform="translate(218.756621, 323.218894)"><g><path d="M 1.386719 0 L 2.132812 0 L 2.132812 -3.226562 L 4.351562 -3.226562 L 6.660156 0 L 7.554688 0 L 5.222656 -3.285156 C 6.574219 -3.519531 7.417969 -4.488281 7.417969 -5.910156 C 7.417969 -7.542969 6.289062 -8.582031 4.5625 -8.582031 L 1.386719 -8.582031 Z M 2.132812 -3.9375 L 2.132812 -7.871094 L 4.488281 -7.871094 C 5.847656 -7.871094 6.660156 -7.125 6.660156 -5.910156 C 6.660156 -4.683594 5.847656 -3.9375 4.488281 -3.9375 Z M 2.132812 -3.9375 "/></g></g></g><g fill="#ffffff" fill-opacity="1"><g transform="translate(232.182164, 323.218894)"><g><path d="M 1.386719 0 L 2.132812 0 L 2.132812 -8.582031 L 1.386719 -8.582031 Z M 1.359375 -9.441406 L 2.035156 -9.441406 L 2.894531 -11.109375 L 2.132812 -11.109375 Z M 1.359375 -9.441406 "/></g></g></g><g fill="#ffffff" fill-opacity="1"><g transform="translate(240.741314, 323.218894)"><g><path d="M 1.386719 0 L 4.09375 0 C 6.832031 0 8.558594 -1.703125 8.558594 -4.292969 C 8.558594 -6.878906 6.832031 -8.582031 4.09375 -8.582031 L 1.386719 -8.582031 Z M 2.132812 -0.710938 L 2.132812 -7.871094 L 4.070312 -7.871094 C 6.363281 -7.871094 7.800781 -6.472656 7.800781 -4.292969 C 7.800781 -2.109375 6.375 -0.710938 4.09375 -0.710938 Z M 2.132812 -0.710938 "/></g></g></g><g fill="#ffffff" fill-opacity="1"><g transform="translate(255.122966, 323.218894)"><g><path d="M 1.386719 0 L 2.132812 0 L 2.132812 -8.582031 L 1.386719 -8.582031 Z M 1.386719 0 "/></g></g></g><g fill="#ffffff" fill-opacity="1"><g transform="translate(263.682116, 323.218894)"><g><path d="M 5.136719 0.160156 C 7.160156 0.160156 8.816406 -1.03125 9.34375 -2.882812 L 8.558594 -2.882812 C 8.082031 -1.460938 6.757812 -0.589844 5.148438 -0.589844 C 3.054688 -0.589844 1.546875 -2.097656 1.546875 -4.292969 C 1.546875 -6.488281 3.054688 -7.996094 5.148438 -7.996094 C 6.71875 -7.996094 7.996094 -7.160156 8.484375 -5.800781 L 9.269531 -5.800781 C 8.707031 -7.601562 7.101562 -8.742188 5.136719 -8.742188 C 2.613281 -8.742188 0.785156 -6.902344 0.785156 -4.292969 C 0.785156 -1.679688 2.613281 0.160156 5.136719 0.160156 Z M 5.136719 0.160156 "/></g></g></g><g fill="#ffffff" fill-opacity="1"><g transform="translate(278.799234, 323.218894)"><g><path d="M 0.269531 0 L 1.066406 0 L 1.949219 -2.15625 L 6.414062 -2.15625 L 7.308594 0 L 8.09375 0 L 4.539062 -8.582031 L 3.824219 -8.582031 Z M 2.242188 -2.84375 L 4.179688 -7.566406 L 6.132812 -2.84375 Z M 2.242188 -2.84375 "/></g></g></g><g fill="#ffffff" fill-opacity="1"><g transform="translate(292.21251, 323.218894)"><g><path d="M 4.144531 0.160156 C 6.007812 0.160156 7.1875 -0.746094 7.1875 -2.183594 C 7.1875 -3.410156 6.351562 -4.167969 4.179688 -4.671875 C 2.378906 -5.078125 1.742188 -5.605469 1.742188 -6.460938 C 1.742188 -7.40625 2.550781 -8.03125 3.9375 -8.03125 C 5.371094 -8.03125 6.242188 -7.34375 6.304688 -6.132812 L 7.039062 -6.132812 C 6.976562 -7.785156 5.824219 -8.742188 3.9375 -8.742188 C 2.109375 -8.742188 0.992188 -7.835938 0.992188 -6.460938 C 0.992188 -5.175781 1.886719 -4.464844 3.996094 -3.972656 C 5.726562 -3.59375 6.425781 -3.066406 6.425781 -2.171875 C 6.425781 -1.175781 5.554688 -0.550781 4.144531 -0.550781 C 2.660156 -0.550781 1.667969 -1.289062 1.59375 -2.550781 L 0.859375 -2.550781 C 0.917969 -0.894531 2.183594 0.160156 4.144531 0.160156 Z M 4.144531 0.160156 "/></g></g></g></svg>