<svg xmlns="http://www.w3.org/2000/svg" xmlns:xlink="http://www.w3.org/1999/xlink" width="1080" zoomAndPan="magnify" viewBox="0 0 810 809.999993" height="1080" preserveAspectRatio="xMidYMid meet" version="1.0"><defs><clipPath id="id1"><path d="M 198.449219 198.449219 L 611.550781 198.449219 L 611.550781 611.550781 L 198.449219 611.550781 Z M 198.449219 198.449219 " clip-rule="nonzero"/></clipPath><clipPath id="id2"><path d="M 611.550781 405.003906 C 611.550781 519.070312 519.074219 611.550781 405 611.550781 C 290.925781 611.550781 198.449219 519.070312 198.449219 405.003906 C 198.449219 290.925781 290.925781 198.449219 405 198.449219 C 519.074219 198.449219 611.550781 290.925781 611.550781 405.003906 Z M 611.550781 405.003906 " clip-rule="nonzero"/></clipPath><clipPath id="id3"><path d="M 284.78125 264 L 525 264 L 525 546.523438 L 284.78125 546.523438 Z M 284.78125 264 " clip-rule="nonzero"/></clipPath></defs><g clip-path="url(#id1)"><g clip-path="url(#id2)"><path fill="#004aad" d="M 198.449219 198.449219 L 611.550781 198.449219 L 611.550781 611.550781 L 198.449219 611.550781 Z M 198.449219 198.449219 " fill-opacity="1" fill-rule="nonzero"/></g></g><g clip-path="url(#id3)"><path fill="#ffffff" d="M 396.933594 448.96875 C 386.992188 446.503906 377.066406 444.949219 367.1875 444.300781 C 381.460938 438.71875 391.867188 421.78125 391.867188 401.804688 C 391.867188 379.511719 378.488281 365.664062 356.953125 365.664062 C 335.417969 365.664062 322.039062 379.511719 322.039062 401.804688 C 322.039062 421.730469 332.394531 438.636719 346.613281 444.261719 C 336.628906 444.890625 326.722656 446.460938 316.9375 448.976562 C 296.296875 454.28125 284.929688 465.546875 284.929688 480.695312 L 284.929688 541.972656 C 284.929688 544.484375 286.964844 546.523438 289.476562 546.523438 L 424.425781 546.523438 C 426.941406 546.523438 428.976562 544.484375 428.976562 541.972656 L 428.976562 480.695312 C 428.976562 465.582031 417.296875 454.019531 396.933594 448.96875 Z M 331.140625 401.804688 C 331.140625 384.621094 340.546875 374.765625 356.953125 374.765625 C 373.355469 374.765625 382.765625 384.621094 382.765625 401.804688 C 382.765625 421.296875 371.1875 437.152344 356.953125 437.152344 C 342.71875 437.152344 331.140625 421.296875 331.140625 401.804688 Z M 419.875 537.421875 L 398.316406 537.421875 L 398.316406 494.78125 C 398.316406 492.269531 396.277344 490.230469 393.765625 490.230469 C 391.253906 490.230469 389.214844 492.269531 389.214844 494.78125 L 389.214844 537.421875 L 324.6875 537.421875 L 324.6875 494.78125 C 324.6875 492.269531 322.652344 490.230469 320.140625 490.230469 C 317.625 490.230469 315.589844 492.269531 315.589844 494.78125 L 315.589844 537.421875 L 294.027344 537.421875 L 294.027344 480.695312 C 294.027344 467.109375 307.71875 460.742188 319.203125 457.789062 C 343.800781 451.464844 369.214844 451.46875 394.738281 457.800781 C 404.128906 460.128906 419.875 466.199219 419.875 480.695312 Z M 477.941406 298.097656 L 471.234375 273.066406 C 470.15625 269.042969 467.113281 265.984375 463.09375 264.882812 C 459.078125 263.785156 454.902344 264.863281 451.921875 267.777344 C 449.804688 269.84375 447.683594 271.964844 445.441406 274.207031 C 433.683594 285.964844 420.367188 299.28125 405.175781 307.011719 L 382.066406 313.199219 C 367.277344 317.164062 358.472656 332.414062 362.433594 347.199219 C 366.394531 361.984375 381.648438 370.789062 396.441406 366.828125 L 398.972656 366.148438 L 405.457031 390.347656 C 406.652344 394.804688 409.515625 398.53125 413.527344 400.847656 C 416.199219 402.390625 419.164062 403.179688 422.164062 403.179688 C 423.664062 403.179688 425.171875 402.980469 426.65625 402.585938 L 430.96875 401.429688 C 432.132812 401.117188 433.128906 400.355469 433.730469 399.308594 C 434.335938 398.265625 434.5 397.023438 434.1875 395.855469 L 424.65625 360.304688 C 443.195312 359.648438 460.882812 364.59375 478.832031 370.203125 C 480 370.566406 481.1875 370.746094 482.355469 370.746094 C 485.285156 370.746094 488.109375 369.625 490.324219 367.5 C 493.421875 364.527344 494.605469 360.277344 493.496094 356.132812 L 487.183594 332.574219 C 490.277344 330.988281 492.855469 328.550781 494.632812 325.46875 C 497.074219 321.242188 497.722656 316.320312 496.460938 311.609375 C 494.199219 303.167969 486.34375 297.695312 477.941406 298.097656 Z M 394.085938 358.039062 C 384.140625 360.703125 373.886719 354.78125 371.226562 344.84375 C 368.5625 334.90625 374.480469 324.652344 384.421875 321.988281 L 403.59375 316.855469 L 413.253906 352.90625 Z M 418.078125 392.964844 C 416.171875 391.867188 414.8125 390.101562 414.25 387.992188 L 407.761719 363.796875 L 415.609375 361.695312 L 424.21875 393.816406 C 422.132812 394.351562 419.957031 394.050781 418.078125 392.964844 Z M 422.246094 351.308594 L 412.144531 313.605469 C 424.773438 306.582031 435.84375 296.472656 445.832031 286.652344 L 464.5625 356.542969 C 452.636719 353.386719 440.605469 351.136719 428.054688 351.136719 C 426.132812 351.136719 424.195312 351.195312 422.246094 351.308594 Z M 484.023438 360.933594 C 483.316406 361.613281 482.484375 361.808594 481.546875 361.515625 C 479.28125 360.808594 477.019531 360.113281 474.757812 359.433594 L 453.269531 279.25 C 454.984375 277.535156 456.640625 275.886719 458.28125 274.28125 C 458.972656 273.605469 459.761719 273.402344 460.691406 273.65625 C 461.621094 273.914062 462.195312 274.488281 462.445312 275.421875 L 484.707031 358.484375 C 484.960938 359.433594 484.730469 360.257812 484.023438 360.933594 Z M 486.753906 320.917969 C 486.210938 321.859375 485.515625 322.667969 484.710938 323.347656 L 480.414062 307.324219 C 483.808594 307.929688 486.71875 310.421875 487.667969 313.964844 C 488.304688 316.328125 487.976562 318.800781 486.753906 320.917969 Z M 521.5 309.613281 L 510.414062 312.582031 C 510.019531 312.6875 509.625 312.738281 509.234375 312.738281 C 507.222656 312.738281 505.386719 311.398438 504.839844 309.363281 C 504.191406 306.9375 505.632812 304.441406 508.058594 303.792969 L 519.144531 300.820312 C 521.574219 300.171875 524.066406 301.613281 524.714844 304.039062 C 525.367188 306.464844 523.925781 308.960938 521.5 309.613281 Z M 505.328125 279.019531 L 499.589844 288.957031 C 498.746094 290.417969 497.21875 291.234375 495.644531 291.234375 C 494.871094 291.234375 494.089844 291.035156 493.375 290.625 C 491.195312 289.367188 490.453125 286.582031 491.707031 284.40625 L 497.445312 274.472656 C 498.703125 272.296875 501.484375 271.550781 503.660156 272.804688 C 505.839844 274.0625 506.585938 276.84375 505.328125 279.019531 Z M 520.949219 341.460938 C 520.109375 342.921875 518.578125 343.738281 517.003906 343.738281 C 516.234375 343.738281 515.453125 343.539062 514.734375 343.128906 L 504.796875 337.390625 C 502.621094 336.132812 501.875 333.351562 503.128906 331.175781 C 504.386719 329 507.167969 328.253906 509.347656 329.511719 L 519.285156 335.246094 C 521.460938 336.503906 522.207031 339.285156 520.949219 341.460938 Z M 520.949219 341.460938 " fill-opacity="1" fill-rule="nonzero"/></g></svg>